<svg xmlns="http://www.w3.org/2000/svg" width="75" height="34" viewBox="0 0 75 34" role="img" aria-label="Expo">
  <title>Expo</title>
  <style>
    .bg{fill:#161B22;stroke:#30363D}
    .tx{fill:#C9D1D9}
    .ic{fill:#E6EDF3}
    @media (prefers-color-scheme: light){
      .bg{fill:#FFFFFF;stroke:#D0D7DE}
      .tx{fill:#24292F}
      .ic{fill:#1C2024}
    }
  </style>
  <rect class="bg" x="0.5" y="0.5" width="74" height="33" rx="8" fill="#161B22" stroke="#30363D"/>
  <g class="ic" fill="#E6EDF3" transform="translate(10 9) scale(0.6667)"><path d="M0 20.084c.043.53.23 1.063.718 1.778.58.849 1.576 1.315 2.303.567.49-.505 5.794-9.776 8.35-13.29a.761.761 0 011.248 0c2.556 3.514 7.86 12.785 8.35 13.29.727.748 1.723.282 2.303-.567.57-.835.728-1.42.728-2.046 0-.426-8.26-15.798-9.092-17.078-.8-1.23-1.044-1.498-2.397-1.542h-1.032c-1.353.044-1.597.311-2.398 1.542C8.267 3.991.33 18.758 0 19.77Z"/></g>
  <text class="tx" fill="#C9D1D9" x="34" y="21.3" font-family="-apple-system,BlinkMacSystemFont,'Segoe UI',Helvetica,Arial,sans-serif" font-size="12.5" font-weight="500" textLength="29" lengthAdjust="spacingAndGlyphs">Expo</text>
</svg>
